<?xml version="1.0" standalone="no"?>
<!DOCTYPE svg PUBLIC "-//W3C//DTD SVG 20010904//EN"
 "http://www.w3.org/TR/2001/REC-SVG-20010904/DTD/svg10.dtd">
<svg version="1.0" xmlns="http://www.w3.org/2000/svg"
 width="484.000000pt" height="484.000000pt" viewBox="0 0 484.000000 484.000000"
 preserveAspectRatio="xMidYMid meet">
<metadata>
Created by potrace 1.11, written by Peter Selinger 2001-2013
</metadata>
<g transform="translate(0.000000,484.000000) scale(0.100000,-0.100000)"
fill="#000000" stroke="none">
<path d="M2119 4775 c-344 -48 -690 -172 -968 -350 -596 -379 -981 -990 -1077
-1705 -18 -135 -18 -435 0 -570 146 -1092 966 -1911 2057 -2055 144 -19 424
-19 568 0 715 94 1326 479 1706 1076 179 280 304 629 351 979 18 135 18 435 0
570 -96 715 -481 1326 -1077 1705 -283 181 -626 303 -980 350 -138 18 -445 18
-580 0z m141 -479 l0 -174 -52 -7 c-83 -10 -247 -44 -266 -54 -9 -5 -20 -9
-25 -9 -30 -1 -142 -46 -252 -102 -183 -93 -310 -184 -445 -320 -268 -267
-434 -607 -485 -987 l-7 -53 -174 0 -174 0 0 39 c0 60 37 266 66 363 105 359
280 647 555 913 251 243 522 401 854 498 105 31 289 65 358 66 l47 1 0 -174z
m564 144 c273 -53 587 -195 815 -367 108 -82 291 -261 381 -374 165 -206 287
-442 364 -707 29 -97 66 -303 66 -363 l0 -39 -860 0 c-778 0 -860 2 -868 16
-16 28 -104 113 -123 119 -18 6 -19 35 -19 877 l0 871 70 -7 c38 -3 116 -15
174 -26z m-571 -971 c-4 -4 -28 -10 -53 -14 -79 -12 -221 -68 -351 -140 -47
-26 -183 -151 -242 -222 -67 -80 -71 -87 -125 -198 -48 -99 -70 -163 -88 -255
-10 -51 -7 -50 -137 -50 l-124 0 8 44 c26 140 95 340 147 426 12 19 29 48 38
65 26 46 119 159 182 221 198 195 399 298 707 362 l40 8 3 -120 c1 -66 -1
-123 -5 -127z m7 -579 c0 -160 0 -161 -24 -170 -31 -11 -95 -75 -106 -106 -9
-24 -10 -24 -171 -24 l-161 0 6 31 c17 86 112 226 209 307 54 46 198 122 229
122 17 0 18 -13 18 -160z m-114 -660 c16 -22 48 -53 72 -70 l42 -31 0 -866 0
-866 -73 6 c-328 28 -715 181 -996 394 -108 82 -291 261 -381 374 -165 206
-287 442 -364 707 -28 93 -66 302 -66 358 l0 34 868 0 868 0 30 -40z m899 18
c-4 -13 -24 -61 -46 -107 -55 -118 -162 -224 -280 -280 -46 -22 -96 -43 -111
-47 l-28 -6 0 158 1 159 40 25 c23 14 57 46 76 73 l35 47 160 0 159 0 -6 -22z
m659 -20 c-23 -150 -85 -323 -162 -453 -184 -309 -479 -524 -822 -600 -62 -14
-119 -25 -127 -25 -11 0 -13 24 -11 121 l3 122 90 22 c168 43 270 94 414 208
169 135 308 358 358 580 l15 67 124 0 124 0 -6 -42z m746 8 c0 -56 -38 -265
-66 -358 -77 -265 -199 -501 -364 -707 -90 -113 -273 -292 -381 -374 -279
-211 -660 -363 -989 -393 l-70 -7 0 170 0 171 63 10 c278 45 471 112 662 232
345 216 585 511 720 885 34 94 85 312 85 363 0 16 3 32 7 35 3 4 80 7 170 7
l163 0 0 -34z"/>
<path d="M622 3218 c-6 -6 -12 -19 -12 -27 0 -13 2 -13 16 1 9 9 15 21 13 27
-3 9 -8 8 -17 -1z"/>
</g>
</svg>
